# xmcd
#
# Track frame offsets: 
#        150
#        9873
#        18730
#        25135
#        28464
#        46124
#        55514
#        61428
#        72951
#        85909
#        96607
#        109627
#        116959
#        130568
#        143219
#
# Disc length: 2158 seconds
#
# Revision: 0
# Processed by: cddbd v1.5.2PL0 Copyright (c) Steve Scherf et al.
# Submitted via: ExactAudioCopy v1.3
#
DISCID=cb086c0f
DTITLE=Langhorne Slim - When the Sun's Gone Down
DYEAR=2008
DGENRE=Blues
TTITLE0=In the Midnight
TTITLE1=Set 'Em Up
TTITLE2=Mary
TTITLE3=Sisterhood
TTITLE4=The Electric Love Letter
TTITLE5=And If It's True
TTITLE6=Hanshaw Shuffle (Drunken Horse)
TTITLE7=Drowning
TTITLE8=I Ain't Proud
TTITLE9=Loretta Lee Jones
TTITLE10=By the Time the Sun's Gone Down
TTITLE11=Hope and Fulfillment
TTITLE12=I Will
TTITLE13=Checking Out
TTITLE14=I Love to Dance
EXTD=
EXTT0=
EXTT1=
EXTT2=
EXTT3=
EXTT4=
EXTT5=
EXTT6=
EXTT7=
EXTT8=
EXTT9=
EXTT10=
EXTT11=
EXTT12=
EXTT13=
EXTT14=
PLAYORDER=
